<svg xmlns="http://www.w3.org/2000/svg" xmlns:xlink="http://www.w3.org/1999/xlink" id="Layer_1" data-name="Layer 1" viewBox="0 0 3999.52 4000"><defs><style>.cls-1{fill:url(#radial-gradient)}.cls-2{fill:#07108c}.cls-3{fill:#0242fe}.cls-4{fill:#90129a}.cls-5{fill:#02f1ff}.cls-6{fill:#7e21ff}.cls-7{fill:#04c5d8}</style><radialGradient id="radial-gradient" cx="1425.27" cy="1821.57" r="3997.8" gradientTransform="translate(1056.74 -147.77) scale(0.69 1.22)" gradientUnits="userSpaceOnUse"><stop offset="0" stop-color="#001f69"/><stop offset=".75" stop-color="#08153a"/><stop offset="1" stop-color="#0b1129"/></radialGradient></defs><g id="Ebene_2" data-name="Ebene 2"><g id="Assets"><g id="Sky"><g id="Sky-2"><rect width="3999.52" height="3999.52" y=".48" class="cls-1"/></g><g id="Stars"><circle cx="3566.04" cy="2847.56" r="8.14" class="cls-2"/><circle cx="3510.48" cy="3018.08" r="2.39" class="cls-2"/><circle cx="3536.82" cy="3088.49" r=".96" class="cls-2"/><circle cx="3554.54" cy="3133.04" r="4.79" class="cls-2"/><circle cx="3606.75" cy="3519.1" r="7.18" class="cls-2"/><circle cx="3567.96" cy="3444.38" r="6.71" class="cls-2"/><circle cx="3590.95" cy="3912.82" r="4.31" class="cls-2"/><circle cx="3445.82" cy="2838.46" r="7.66" class="cls-2"/><circle cx="3355.29" cy="2899.29" r=".48" class="cls-2"/><circle cx="3382.11" cy="3102.86" r="2.39" class="cls-2"/><circle cx="3430.97" cy="3366.3" r="7.66" class="cls-2"/><circle cx="3412.76" cy="3974.61" r="5.75" class="cls-2"/><circle cx="3930.07" cy="2943.84" r="2.39" class="cls-2"/><circle cx="3902.29" cy="2942.4" r=".96" class="cls-2"/><circle cx="3664.23" cy="2882.05" r="7.18" class="cls-2"/><circle cx="3213.99" cy="2853.31" r="7.66" class="cls-2"/><circle cx="3307.39" cy="2974.97" r="3.35" class="cls-2"/><circle cx="3304.99" cy="3078.43" r="2.39" class="cls-2"/><circle cx="3288.71" cy="3405.1" r=".96" class="cls-2"/><circle cx="3294.93" cy="3518.14" r="5.75" class="cls-2"/><circle cx="3259.01" cy="3974.61" r="4.31" class="cls-2"/><circle cx="3798.83" cy="2802.06" r="4.79" class="cls-2"/><circle cx="3627.35" cy="2690.94" r="2.39" class="cls-2"/><circle cx="3202.01" cy="2818.35" r="6.71" class="cls-2"/><circle cx="2697.16" cy="2883.01" r="2.87" class="cls-2"/><circle cx="2689.5" cy="3053.53" r="8.14" class="cls-2"/><circle cx="3097.59" cy="3245.6" r="3.35" class="cls-2"/><circle cx="3196.26" cy="3525.33" r="7.18" class="cls-2"/><circle cx="3938.21" cy="2737.4" r="6.23" class="cls-2"/><circle cx="3827.57" cy="2708.66" r="1.44" class="cls-2"/><circle cx="3672.37" cy="2670.82" r="6.71" class="cls-2"/><path d="M2446.89,2695.25a7.66,7.66,0,1,1-7.66,7.66A7.66,7.66,0,0,1,2446.89,2695.25Z" class="cls-2" transform="translate(-0.24)"/><circle cx="2567.84" cy="2919.41" r="4.79" class="cls-2"/><circle cx="2634.89" cy="3049.22" r="6.71" class="cls-2"/><circle cx="2961.08" cy="3585.2" r="3.83" class="cls-2"/><circle cx="2918.93" cy="3682.43" r="6.23" class="cls-2"/><circle cx="2919.89" cy="3788.29" r="6.71" class="cls-2"/><circle cx="2922.76" cy="3932.46" r="2.39" class="cls-2"/><circle cx="3852.47" cy="2552.03" r="3.35" class="cls-2"/><circle cx="3693.45" cy="2517.06" r="7.18" class="cls-2"/><circle cx="2413.12" cy="2690.94" r="1.44" class="cls-2"/><path d="M2451.68,2841.34a2.4,2.4,0,1,1-2.39,2.39A2.26,2.26,0,0,1,2451.68,2841.34Z" class="cls-2" transform="translate(-0.24)"/><circle cx="2782.9" cy="3374.45" r="6.23" class="cls-2"/><circle cx="2474.43" cy="3502.81" r="3.83" class="cls-2"/><circle cx="2459.11" cy="3496.59" r="2.39" class="cls-2"/><circle cx="2711.53" cy="3753.8" r="7.18" class="cls-2"/><circle cx="2461.5" cy="3908.99" r=".48" class="cls-2"/><circle cx="2531.91" cy="3985.63" r="2.87" class="cls-2"/><circle cx="3851.04" cy="2178.42" r="3.83" class="cls-2"/><circle cx="3106.69" cy="969.94" r="2.39" class="cls-2"/><circle cx="2837.03" cy="1114.6" r="1.44" class="cls-2"/><circle cx="3061.19" cy="990.54" r="6.71" class="cls-2"/><circle cx="2423.66" cy="1132.8" r="3.83" class="cls-2"/><circle cx="2521.37" cy="1174.95" r="6.23" class="cls-2"/><circle cx="2694.77" cy="1321.04" r="6.71" class="cls-2"/><circle cx="2839.42" cy="1318.17" r="2.39" class="cls-2"/><circle cx="3101.9" cy="1171.6" r="3.35" class="cls-2"/><circle cx="3261.41" cy="1206.08" r="7.18" class="cls-2"/><circle cx="2412.17" cy="1269.79" r="2.39" class="cls-2"/><circle cx="2763.74" cy="1446.53" r="7.18" class="cls-2"/><circle cx="3252.31" cy="1431.68" r="3.83" class="cls-2"/><circle cx="3758.59" cy="2198.06" r="5.75" class="cls-2"/><circle cx="2309.66" cy="2680.88" r="7.18" class="cls-2"/><circle cx="2294.34" cy="2807.81" r=".48" class="cls-2"/><circle cx="2522.81" cy="3259.49" r="1.44" class="cls-2"/><circle cx="2372.41" cy="3463.54" r="1.44" class="cls-2"/><circle cx="2438.03" cy="3643.16" r="7.66" class="cls-2"/><circle cx="2320.68" cy="3674.77" r="5.75" class="cls-2"/><circle cx="2345.11" cy="3848.16" r="8.14" class="cls-2"/><circle cx="3947.79" cy="2159.74" r="4.31" class="cls-2"/><circle cx="3790.68" cy="2103.22" r="2.39" class="cls-2"/><circle cx="3676.21" cy="2099.87" r="7.18" class="cls-2"/><circle cx="1965.75" cy="1913.06" r="7.18" class="cls-2"/><circle cx="2177.46" cy="2858.1" r="8.14" class="cls-2"/><circle cx="2373.37" cy="3327.51" r="7.66" class="cls-2"/><circle cx="1887.2" cy="3199.14" r="6.23" class="cls-2"/><circle cx="2267.03" cy="3532.99" r="5.75" class="cls-2"/><circle cx="2221.53" cy="3781.58" r="5.27" class="cls-2"/><circle cx="2210.99" cy="3807.45" r=".96" class="cls-2"/><circle cx="3921.93" cy="1991.14" r="1.44" class="cls-2"/><circle cx="3817.99" cy="2025.63" r="4.79" class="cls-2"/><circle cx="3699.68" cy="1978.69" r=".48" class="cls-2"/><circle cx="1823.49" cy="1790.92" r="5.27" class="cls-2"/><circle cx="1829.24" cy="2765.18" r="6.23" class="cls-2"/><circle cx="1791.88" cy="2793.44" r="4.79" class="cls-2"/><circle cx="1782.78" cy="3216.38" r="7.66" class="cls-2"/><circle cx="3581.85" cy="1558.14" r="8.14" class="cls-2"/><circle cx="3547.36" cy="2060.59" r="2.39" class="cls-2"/><circle cx="3573.7" cy="2131" r=".96" class="cls-2"/><circle cx="3591.43" cy="2175.07" r="4.79" class="cls-2"/><circle cx="3422.34" cy="2043.35" r="7.18" class="cls-2"/><circle cx="3384.03" cy="1969.11" r="6.71" class="cls-2"/><circle cx="3461.62" cy="1549.52" r="7.66" class="cls-2"/><circle cx="3371.09" cy="1610.35" r=".48" class="cls-2"/><circle cx="3418.99" cy="2145.37" r="2.39" class="cls-2"/><circle cx="3288.23" cy="1936.06" r="7.66" class="cls-2"/><circle cx="3230.27" cy="1564.36" r="7.66" class="cls-2"/><circle cx="3323.67" cy="1686.03" r="3.35" class="cls-2"/><circle cx="3341.88" cy="2120.94" r="2.39" class="cls-2"/><circle cx="3165.61" cy="1991.14" r=".96" class="cls-2"/><circle cx="3218.3" cy="1529.4" r="6.71" class="cls-2"/><circle cx="1709.97" cy="1284.16" r="8.14" class="cls-2"/><circle cx="1437.43" cy="1258.77" r="2.39" class="cls-2"/><circle cx="1406.3" cy="1327.27" r=".96" class="cls-2"/><circle cx="1472.88" cy="1011.62" r="7.66" class="cls-2"/><circle cx="1411.57" cy="1065.26" r=".48" class="cls-2"/><path d="M1287.27,1225.72a2.4,2.4,0,1,1-2.39,2.4A2.27,2.27,0,0,1,1287.27,1225.72Z" class="cls-2" transform="translate(-0.24)"/><circle cx="1607.95" cy="1364.15" r="7.66" class="cls-2"/><circle cx="1324.39" cy="1084.9" r="3.35" class="cls-2"/><circle cx="1249.19" cy="1156.27" r="2.39" class="cls-2"/><circle cx="1360.8" cy="900.01" r="6.71" class="cls-2"/><circle cx="2744.1" cy="1680.28" r="2.87" class="cls-2"/><circle cx="2736.44" cy="1850.8" r="8.14" class="cls-2"/><circle cx="3062.15" cy="1950.9" r="3.35" class="cls-2"/><circle cx="2539.58" cy="1574.9" r="7.66" class="cls-2"/><circle cx="2615.26" cy="1716.68" r="4.79" class="cls-2"/><circle cx="2681.83" cy="1846.49" r="6.71" class="cls-2"/><circle cx="2961.08" cy="2410.73" r="3.83" class="cls-2"/><circle cx="2403.07" cy="1413.96" r="1.44" class="cls-2"/><circle cx="2394.92" cy="1492.52" r="2.39" class="cls-2"/><circle cx="2739.31" cy="2105.14" r="6.23" class="cls-2"/><circle cx="2368.58" cy="1982.52" r="3.83" class="cls-2"/><circle cx="2299.13" cy="1404.38" r="7.18" class="cls-2"/><circle cx="2284.28" cy="1530.83" r=".48" class="cls-2"/><circle cx="2314.45" cy="1780.86" r="1.44" class="cls-2"/><circle cx="2229.67" cy="1914.5" r="1.44" class="cls-2"/><circle cx="1779.43" cy="576.22" r="7.18" class="cls-2"/><circle cx="2210.99" cy="1675.97" r="8.14" class="cls-2"/><circle cx="2254.58" cy="2017.96" r="7.66" class="cls-2"/><circle cx="2203.81" cy="2032.81" r="6.23" class="cls-2"/><circle cx="2251.23" cy="2181.77" r="5.75" class="cls-2"/><circle cx="1707.58" cy="568.55" r="5.27" class="cls-2"/><circle cx="1736.32" cy="752.01" r="6.71" class="cls-2"/><circle cx="1698.96" cy="779.79" r="4.79" class="cls-2"/><circle cx="1709.5" cy="1058.56" r="7.66" class="cls-2"/><circle cx="1040.35" cy="1048.02" r="8.14" class="cls-2"/><circle cx="1237.7" cy="440.19" r="7.18" class="cls-2"/><circle cx="1165.85" cy="432.52" r="5.27" class="cls-2"/><circle cx="1194.59" cy="615.97" r="6.71" class="cls-2"/><circle cx="1157.23" cy="644.23" r="4.79" class="cls-2"/><circle cx="1167.76" cy="922.52" r="7.66" class="cls-2"/><circle cx="3377.32" cy="2135.79" r=".96" class="cls-2"/><circle cx="3395.04" cy="2180.34" r="4.79" class="cls-2"/><circle cx="3533.47" cy="2791.04" r="7.18" class="cls-2"/><path d="M3367,2440.43a6.71,6.71,0,1,1-6.7,6.7A6.55,6.55,0,0,1,3367,2440.43Z" class="cls-2" transform="translate(-0.24)"/><circle cx="3222.61" cy="2150.16" r="2.39" class="cls-2"/><circle cx="3229.79" cy="2369.06" r="7.66" class="cls-2"/><circle cx="3145.01" cy="2126.21" r="2.39" class="cls-2"/><circle cx="3148.84" cy="2469.17" r=".96" class="cls-2"/><circle cx="2719.67" cy="2328.82" r="8.14" class="cls-2"/><circle cx="3085.62" cy="2578.85" r="3.35" class="cls-2"/><circle cx="3392.17" cy="1001.56" r="7.66" class="cls-2"/><circle cx="3434.32" cy="930.67" r=".96" class="cls-2"/><circle cx="3166.57" cy="1016.41" r="3.35" class="cls-2"/><circle cx="3490.84" cy="1090.17" r="2.39" class="cls-2"/><circle cx="3498.02" cy="1308.59" r="7.66" class="cls-2"/><circle cx="3413.72" cy="1065.74" r="2.39" class="cls-2"/><circle cx="3272.42" cy="1323.43" r="3.35" class="cls-2"/><circle cx="2665.07" cy="2324.51" r="6.71" class="cls-2"/><circle cx="2944.32" cy="2888.76" r="3.83" class="cls-2"/><circle cx="2660.28" cy="2624.84" r="6.23" class="cls-2"/><circle cx="2393.01" cy="2650.7" r="3.83" class="cls-2"/><circle cx="2400.67" cy="2407.38" r="1.44" class="cls-2"/><circle cx="2254.1" cy="2582.68" r="1.44" class="cls-2"/><circle cx="2189.44" cy="2516.58" r="7.66" class="cls-2"/><circle cx="2138.67" cy="2531.91" r="6.23" class="cls-2"/><circle cx="2185.61" cy="2680.4" r="5.75" class="cls-2"/><circle cx="1839.78" cy="1672.14" r="7.66" class="cls-2"/><circle cx="2133.4" cy="3646.99" r=".96" class="cls-2"/><circle cx="2147.29" cy="3768.65" r="3.35" class="cls-2"/><rect x="2144.89" y="3893.19" class="cls-2"/><circle cx="3870.67" cy="1889.12" r="1.44" class="cls-2"/><circle cx="3840.98" cy="1865.17" r="7.18" class="cls-2"/><circle cx="1289.91" cy="3515.75" r="7.66" class="cls-2"/><circle cx="1343.55" cy="3585.2" r="4.79" class="cls-2"/><circle cx="1256.38" cy="3503.77" r="1.44" class="cls-2"/><circle cx="1294.7" cy="3656.57" r="2.39" class="cls-2"/><circle cx="3627.83" cy="860.74" r="3.83" class="cls-2"/><circle cx="980" cy="3435.28" r="7.18" class="cls-2"/><circle cx="965.15" cy="3561.73" r=".48" class="cls-2"/><circle cx="3871.15" cy="578.61" r="1.44" class="cls-2"/><circle cx="3692.49" cy="341.99" r="1.44" class="cls-2"/><circle cx="891.39" cy="3942.04" r="8.14" class="cls-2"/><circle cx="3758.11" cy="276.85" r="7.66" class="cls-2"/><circle cx="3743.26" cy="226.08" r="6.23" class="cls-2"/><circle cx="830.56" cy="3732.73" r="5.27" class="cls-2"/><circle cx="3937.73" cy="531.67" r="6.23" class="cls-2"/><circle cx="3891.27" cy="532.15" r="4.79" class="cls-2"/><circle cx="972.34" cy="1945.64" r="7.66" class="cls-2"/><circle cx="1134.24" cy="3106.21" r="3.83" class="cls-2"/><circle cx="1364.63" cy="3251.83" r="1.44" class="cls-2"/><circle cx="811.88" cy="3504.73" r="7.66" class="cls-2"/><circle cx="793.68" cy="3554.54" r="6.23" class="cls-2"/><circle cx="941.2" cy="3605.8" r="5.75" class="cls-2"/><circle cx="969.46" cy="1690.82" r="7.66" class="cls-2"/><circle cx="1306.67" cy="3105.26" r=".96" class="cls-2"/><circle cx="1335.41" cy="3183.81" r="3.35" class="cls-2"/><rect x="1333.01" y="3307.87" class="cls-2"/><circle cx="859.3" cy="3531.07" r="1.44" class="cls-2"/><circle cx="1673.09" cy="3943.96" r="7.66" class="cls-2"/><circle cx="1639.56" cy="3931.98" r="1.44" class="cls-2"/><circle cx="3894.14" cy="1322.48" r="2.39" class="cls-2"/><circle cx="1363.19" cy="3863.49" r="7.18" class="cls-2"/><circle cx="1348.34" cy="3989.94" r=".48" class="cls-2"/><circle cx="3817.99" cy="858.82" r="5.27" class="cls-2"/><circle cx="1195.07" cy="3932.94" r="7.66" class="cls-2"/><circle cx="1176.87" cy="3982.76" r="6.23" class="cls-2"/><circle cx="3944.92" cy="968.99" r="5.75" class="cls-2"/><circle cx="1242.49" cy="3959.29" r="1.44" class="cls-2"/><circle cx="3673.81" cy="1875.22" r=".48" class="cls-2"/><circle cx="1376.6" cy="2218.66" r="3.35" class="cls-2"/><circle cx="1421.63" cy="1160.1" r="7.66" class="cls-2"/><circle cx="1403.42" cy="1768.41" r="5.75" class="cls-2"/><circle cx="1289.91" cy="1842.65" r="2.39" class="cls-2"/><circle cx="1288.47" cy="1870.43" r=".96" class="cls-2"/><circle cx="1228.12" cy="2108.49" r="7.18" class="cls-2"/><circle cx="1295.17" cy="2315.41" r="6.23" class="cls-2"/><circle cx="1440.31" cy="2331.22" r="2.87" class="cls-2"/><circle cx="1427.37" cy="2645.43" r="7.18" class="cls-2"/><circle cx="1370.37" cy="2971.14" r=".48" class="cls-2"/><circle cx="1334.45" cy="3045.38" r="7.66" class="cls-2"/><circle cx="1439.83" cy="3149.32" r=".96" class="cls-2"/><circle cx="1279.37" cy="1199.38" r=".96" class="cls-2"/><circle cx="1286.07" cy="1311.94" r="5.75" class="cls-2"/><circle cx="1249.67" cy="1768.41" r="4.31" class="cls-2"/><circle cx="1148.13" cy="1973.9" r="4.79" class="cls-2"/><circle cx="1037" cy="2145.37" r="2.39" class="cls-2"/><circle cx="1176.87" cy="2506.53" r="7.66" class="cls-2"/><circle cx="1329.18" cy="2379.12" r="4.79" class="cls-2"/><circle cx="1334.45" cy="2486.89" r=".96" class="cls-2"/><circle cx="1252.54" cy="2692.85" r=".96" class="cls-2"/><circle cx="1311.94" cy="2758.47" r=".96" class="cls-2"/><circle cx="1300.92" cy="2898.34" r="2.39" class="cls-2"/><circle cx="1328.7" cy="3015.21" r="5.75" class="cls-2"/><circle cx="1186.92" cy="1319.12" r="7.18" class="cls-2"/><circle cx="1082.98" cy="1834.51" r="6.23" class="cls-2"/><circle cx="1054.72" cy="1945.16" r="1.44" class="cls-2"/><circle cx="1016.88" cy="2100.35" r="6.71" class="cls-2"/><circle cx="1086.82" cy="2491.2" r=".96" class="cls-2"/><circle cx="1202.73" cy="2415.52" r="1.92" class="cls-2"/><circle cx="1151.48" cy="2503.17" r="6.23" class="cls-2"/><circle cx="1168.24" cy="2588.43" r="5.27" class="cls-2"/><circle cx="1196.02" cy="2798.71" r=".48" class="cls-2"/><circle cx="1145.73" cy="2894.5" r="3.83" class="cls-2"/><circle cx="1101.19" cy="3048.26" r="5.75" class="cls-2"/><circle cx="1114.6" cy="3134" r="3.35" class="cls-2"/><circle cx="951.74" cy="1379" r="3.83" class="cls-2"/><circle cx="909.59" cy="1476.71" r="6.23" class="cls-2"/><circle cx="910.55" cy="1582.09" r="6.71" class="cls-2"/><circle cx="913.42" cy="1726.26" r="2.39" class="cls-2"/><circle cx="897.62" cy="1919.77" r="3.35" class="cls-2"/><circle cx="863.13" cy="2079.27" r="7.18" class="cls-2"/><circle cx="897.14" cy="2485.45" r=".96" class="cls-2"/><circle cx="827.21" cy="2417.91" r=".48" class="cls-2"/><circle cx="915.34" cy="2544.37" r="3.83" class="cls-2"/><circle cx="933.06" cy="2629.63" r=".96" class="cls-2"/><circle cx="968.99" cy="2900.73" r="3.35" class="cls-2"/><circle cx="1039.4" cy="3082.74" r="5.75" class="cls-2"/><circle cx="773.56" cy="1168.24" r="6.23" class="cls-2"/><circle cx="465.09" cy="1296.61" r="3.83" class="cls-2"/><circle cx="449.77" cy="1290.38" r="2.39" class="cls-2"/><circle cx="702.19" cy="1547.6" r="7.18" class="cls-2"/><circle cx="452.16" cy="1702.79" r=".48" class="cls-2"/><circle cx="522.57" cy="1779.43" r="2.87" class="cls-2"/><circle cx="524.49" cy="1921.69" r="3.83" class="cls-2"/><circle cx="544.13" cy="2014.13" r="5.75" class="cls-2"/><circle cx="640.4" cy="2252.19" r="7.66" class="cls-2"/><circle cx="739.07" cy="2524.25" r=".96" class="cls-2"/><circle cx="687.82" cy="2749.85" r="3.83" class="cls-2"/><circle cx="901.45" cy="2925.16" r="6.23" class="cls-2"/><circle cx="1709.02" cy="2093.64" r=".96" class="cls-2"/><circle cx="363.07" cy="1257.33" r="1.44" class="cls-2"/><circle cx="428.69" cy="1436.95" r="7.66" class="cls-2"/><circle cx="311.6" cy="1468.6" r="5.75" class="cls-2" transform="translate(-32.53 7.22) rotate(-1.26)"/><circle cx="335.77" cy="1641.96" r="8.14" class="cls-2"/><circle cx="505.81" cy="1824.93" r="4.31" class="cls-2"/><circle cx="449.29" cy="1982.04" r="2.39" class="cls-2"/><circle cx="445.93" cy="2096.52" r="7.18" class="cls-2"/><circle cx="437.79" cy="2317.33" r="2.39" class="cls-2"/><circle cx="650.94" cy="2606.15" r="3.83" class="cls-2"/><circle cx="660.52" cy="2693.33" r="7.18" class="cls-2"/><circle cx="738.12" cy="2909.83" r="3.83" class="cls-2"/><circle cx="743.38" cy="3104.78" r="4.79" class="cls-2"/><circle cx="257.69" cy="1326.79" r="5.75" class="cls-2"/><circle cx="212.19" cy="1575.38" r="5.27" class="cls-2"/><circle cx="202.13" cy="1601.25" r=".96" class="cls-2"/><circle cx="336.73" cy="1850.8" r="1.44" class="cls-2"/><circle cx="371.69" cy="1954.74" r="4.79" class="cls-2"/><circle cx="324.75" cy="2073.05" r=".48" class="cls-2"/><circle cx="405.7" cy="2157.35" r="1.44" class="cls-2"/><circle cx="470.84" cy="2604.24" r="7.66" class="cls-2"/><circle cx="457.43" cy="2675.61" r="4.79" class="cls-2"/><circle cx="500.06" cy="2770.45" r=".48" class="cls-2"/><circle cx="544.61" cy="3034.37" r="3.83" class="cls-2"/><circle cx="235.18" cy="1902.05" r="1.44" class="cls-2"/><circle cx="211.23" cy="1931.74" r="7.18" class="cls-2"/><circle cx="221.29" cy="2098.91" r=".48" class="cls-2"/><circle cx="252.42" cy="2308.71" r="2.39" class="cls-2"/><circle cx="354.93" cy="2535.74" r="4.79" class="cls-2"/><circle cx="288.83" cy="2709.62" r="2.87" class="cls-2"/><circle cx="336.73" cy="2769.01" r="4.79" class="cls-2"/><circle cx="447.37" cy="2982.64" r="4.79" class="cls-2"/><circle cx="464.14" cy="3151.24" r="5.27" class="cls-2"/><circle cx="1701.83" cy="1951.38" r="7.66" class="cls-2"/><circle cx="1638.13" cy="1857.98" r="1.44" class="cls-2"/><circle cx="2079.27" cy="3605.32" r="3.83" class="cls-2"/><circle cx="3883.61" cy="1699.92" r=".48" class="cls-2"/><circle cx="3822.3" cy="1698" r="2.87" class="cls-2"/><circle cx="3635.01" cy="1729.61" r="3.83" class="cls-2"/><circle cx="1448.45" cy="1803.38" r="7.18" class="cls-2"/><circle cx="1475.75" cy="2669.86" r=".48" class="cls-2"/><circle cx="1541.37" cy="2967.79" r="1.44" class="cls-2"/><circle cx="1940.37" cy="3537.3" r="1.44" class="cls-2"/><circle cx="2042.39" cy="3745.66" r="7.66" class="cls-2"/><circle cx="1925.04" cy="3777.27" r="5.75" class="cls-2"/><circle cx="3944.92" cy="1583.52" r="8.14" class="cls-2"/><circle cx="3776.79" cy="1680.76" r="4.31" class="cls-2"/><circle cx="1259.25" cy="1971.5" r="7.18" class="cls-2"/><circle cx="1521.25" cy="2867.2" r="8.14" class="cls-2"/><circle cx="1437.91" cy="3110.53" r="7.66" class="cls-2"/><circle cx="1455.16" cy="3272.42" r="6.23" class="cls-2"/><circle cx="1871.87" cy="3635.49" r="5.75" class="cls-2"/><circle cx="1814.87" cy="3967.43" r="5.27" class="cls-2"/><circle cx="2174.11" cy="2829.84" r="3.83" class="cls-2"/><circle cx="2158.78" cy="2823.61" r="2.39" class="cls-2"/><circle cx="2161.18" cy="3236.02" r=".48" class="cls-2"/><circle cx="2072.09" cy="2790.56" r="1.44" class="cls-2"/><circle cx="2137.71" cy="2969.7" r="7.66" class="cls-2"/><circle cx="2020.36" cy="3001.32" r="5.75" class="cls-2"/><circle cx="2044.79" cy="3174.71" r="8.14" class="cls-2"/><circle cx="2073.05" cy="2654.53" r="7.66" class="cls-2"/><circle cx="3102.38" cy="752.48" r="7.66" class="cls-2"/><circle cx="3069.33" cy="740.51" r="1.44" class="cls-2"/><circle cx="2965.39" cy="730.45" r="7.18" class="cls-2"/><circle cx="61.79" cy="422.46" r="8.14" class="cls-2"/><circle cx="57.96" cy="477.55" r="6.71" class="cls-2"/><circle cx="3617.29" cy="459.83" r="3.83" class="cls-2"/><circle cx="3395.04" cy="154.71" r="6.23" class="cls-2"/><circle cx="3024.79" cy="32.09" r="3.83" class="cls-2"/><circle cx="125.97" cy="929.71" r="1.44" class="cls-2"/><circle cx="2910.31" cy="67.54" r="7.66" class="cls-2"/><circle cx="2859.54" cy="82.39" r="6.23" class="cls-2"/><circle cx="2906.96" cy="231.35" r="5.75" class="cls-2"/><circle cx="3375.4" cy="378.4" r="8.14" class="cls-2"/><circle cx="3320.8" cy="374.09" r="6.71" class="cls-2"/><circle cx="3316.01" cy="674.41" r="6.23" class="cls-2"/><circle cx="3049.22" cy="700.28" r="3.83" class="cls-2"/><circle cx="3056.88" cy="456.95" r="1.44" class="cls-2"/><circle cx="2910.31" cy="632.26" r="1.44" class="cls-2"/><circle cx="2845.17" cy="566.16" r="7.66" class="cls-2"/><circle cx="2794.4" cy="581.49" r="6.23" class="cls-2"/><circle cx="2841.82" cy="729.97" r="5.75" class="cls-2"/><circle cx="2728.78" cy="704.11" r="7.66" class="cls-2"/><circle cx="1966.71" cy="2859.54" r="5.75" class="cls-2"/><circle cx="1921.21" cy="3108.13" r="5.27" class="cls-2"/><circle cx="1911.15" cy="3134.47" r=".96" class="cls-2"/><circle cx="1833.07" cy="2973.54" r=".96" class="cls-2"/><circle cx="1846.96" cy="3095.68" r="3.35" class="cls-2"/><rect x="1844.57" y="3219.73" class="cls-2"/><circle cx="1778.95" cy="2932.34" r="3.83" class="cls-2"/><circle cx="1640.04" cy="2864.33" r="1.44" class="cls-2"/><circle cx="1742.07" cy="3072.21" r="7.66" class="cls-2"/><circle cx="1624.72" cy="3104.3" r="5.75" class="cls-2"/><circle cx="1571.07" cy="2962.04" r="5.75" class="cls-2"/><circle cx="133.16" cy="1250.15" r="2.39" class="cls-2"/><circle cx="97.23" cy="1406.78" r=".48" class="cls-2"/><circle cx="2636.81" cy="387.5" r="1.44" class="cls-2"/><circle cx="57.48" cy="1748.29" r="8.14" class="cls-2"/><circle cx="2486.89" cy="455.51" r="7.66" class="cls-2"/><circle cx="1566.28" cy="202.61" r="6.23" class="cls-2"/><circle cx="1896.78" cy="344.39" r="7.66" class="cls-2"/><circle cx="29.22" cy="1751.65" r="3.83" class="cls-2"/><circle cx="22.99" cy="1766.97" r="2.39" class="cls-2"/><circle cx="2275.18" cy="363.55" r=".48" class="cls-2"/><circle cx="2027.06" cy="7.66" r="7.66" class="cls-2"/><circle cx="1909.71" cy="39.76" r="5.75" class="cls-2"/><circle cx="1723.87" cy="178.18" r="8.14" class="cls-2"/><circle cx="59.39" cy="1959.05" r="5.75" class="cls-2"/><circle cx="1589.75" cy="137.95" r=".96" class="cls-2"/><circle cx="138.91" cy="2302.96" r=".96" class="cls-2"/><circle cx="1526.04" cy="99.15" r="3.35" class="cls-2"/><rect x="1958.57" y="347.74" class="cls-2"/><circle cx="97.71" cy="2357.56" r="3.83" class="cls-2"/><circle cx="29.22" cy="2496.47" r="1.44" class="cls-2"/><circle cx="1421.15" cy="76.16" r="7.66" class="cls-2"/><circle cx="1303.8" cy="107.77" r="5.75" class="cls-2"/><circle cx="127.41" cy="2564.96" r="5.75" class="cls-2"/><circle cx="1514.55" cy="3294.46" r="5.27" class="cls-2"/><circle cx="1804.81" cy="3993.29" r=".96" class="cls-2"/><circle cx="3812.72" cy="1450.84" r="1.44" class="cls-2"/><circle cx="1040.35" cy="1636.69" r="5.27" class="cls-2"/><circle cx="1146.69" cy="2775.24" r="6.23" class="cls-2"/><circle cx="1144.77" cy="2851.4" r="4.79" class="cls-2"/><circle cx="1317.69" cy="2844.69" r="7.66" class="cls-2"/><circle cx="1618.01" cy="1818.23" r="3.83" class="cls-2"/><circle cx="1431.21" cy="1496.35" r="1.44" class="cls-2"/><circle cx="1392.89" cy="1704.71" r="1.44" class="cls-2"/><circle cx="1394.8" cy="2642.08" r="7.66" class="cls-2"/><circle cx="2370.97" cy="440.67" r="3.35" class="cls-2"/><circle cx="2289.55" cy="537.9" r="6.23" class="cls-2"/><circle cx="2434.2" cy="553.23" r="2.87" class="cls-2"/><circle cx="2421.27" cy="867.44" r="7.18" class="cls-2"/><circle cx="2170.76" cy="728.54" r="7.66" class="cls-2"/><circle cx="2323.55" cy="601.13" r="4.79" class="cls-2"/><circle cx="2328.34" cy="708.9" r=".96" class="cls-2"/><circle cx="2080.71" cy="713.21" r=".96" class="cls-2"/><circle cx="2197.1" cy="637.53" r="1.92" class="cls-2"/><circle cx="2145.85" cy="725.66" r="6.23" class="cls-2"/><circle cx="2162.62" cy="810.44" r="5.27" class="cls-2"/><circle cx="2470.12" cy="892.35" r=".48" class="cls-2"/><circle cx="2389.17" cy="864.57" r="7.66" class="cls-2"/><circle cx="1202.73" cy="1331.58" r="6.23" class="cls-2"/><circle cx="1355.05" cy="1976.29" r="5.75" class="cls-2"/><circle cx="1163.93" cy="1638.61" r="7.66" class="cls-2"/><circle cx="1320.08" cy="3642.68" r=".96" class="cls-2"/><circle cx="1406.3" cy="3951.14" r="3.35" class="cls-2"/><circle cx="983.83" cy="695.01" r="4.79" class="cls-2"/><circle cx="1077.24" cy="282.12" r="7.66" class="cls-2"/><circle cx="34.23" cy="3143.89" r="7.66" class="cls-2" transform="translate(-3109.97 3170.53) rotate(-89.86)"/><circle cx="38.08" cy="3179.02" r="1.44" class="cls-2" transform="translate(-15.98 0.23) rotate(-0.28)"/><circle cx="37.36" cy="3464.02" r="7.18" class="cls-2"/><circle cx="421.03" cy="232.31" r="3.83" class="cls-2"/><circle cx="679.68" cy="146.57" r="1.44" class="cls-2"/><circle cx="588.19" cy="274.94" r=".96" class="cls-2"/><circle cx="635.13" cy="205.48" r="3.35" class="cls-2"/><rect x="662.91" y="84.78" class="cls-2"/><circle cx="617.41" cy="420.07" r=".48" class="cls-2"/><circle cx="600.65" cy="339.6" r="7.66" class="cls-2"/><circle cx="728.54" cy="264.4" r=".96" class="cls-2"/><circle cx="436.35" cy="661.96" r=".96" class="cls-2"/><circle cx="509.16" cy="612.62" r=".96" class="cls-2"/><circle cx="532.63" cy="474.19" r="2.87" class="cls-2"/><circle cx="587.71" cy="367.38" r="5.75" class="cls-2"/><circle cx="406.66" cy="545.56" r=".48" class="cls-2"/><circle cx="381.27" cy="440.19" r="3.83" class="cls-2"/><circle cx="375.04" cy="280.21" r="5.75" class="cls-2"/><circle cx="409.05" cy="200.22" r="3.35" class="cls-2"/><circle cx="211.23" cy="391.81" r="3.35" class="cls-2"/><circle cx="323.31" cy="231.83" r="5.75" class="cls-2"/><circle cx="647.11" cy="738.12" r=".48" class="cls-2"/><circle cx="782.66" cy="464.62" r="1.44" class="cls-2"/><circle cx="739.07" cy="557.54" r="8.14" class="cls-2"/><circle cx="716.56" cy="301.28" r="7.66" class="cls-2"/><circle cx="772.6" cy="148.49" r="6.23" class="cls-2"/><circle cx="1004.43" cy="556.58" r="3.83" class="cls-2"/><circle cx="853.07" cy="589.15" r="1.44" class="cls-2"/><circle cx="1002.99" cy="411.93" r="7.66" class="cls-2"/><circle cx="896.66" cy="353.01" r="5.75" class="cls-2"/><circle cx="810.44" cy="477.55" r="5.75" class="cls-2"/><circle cx="835.83" cy="141.78" r="5.27" class="cls-2"/><circle cx="353.49" cy="556.1" r="6.23" class="cls-2"/><circle cx="369.78" cy="481.86" r="4.79" class="cls-2"/><circle cx="535.98" cy="530.24" r="7.66" class="cls-2"/><rect x="3903.25" y="1048.5" class="cls-2"/><circle cx="3644.11" cy="972.82" r="1.44" class="cls-2"/><circle cx="686.38" cy="1391.93" r="8.14" class="cls-3"/><circle cx="744.34" cy="1570.59" r="2.39" class="cls-3"/><circle cx="580.05" cy="2012.69" r=".96" class="cls-3"/><circle cx="561.37" cy="2059.15" r="5.27" class="cls-3"/><circle cx="550.35" cy="2415.52" r="7.18" class="cls-3"/><circle cx="590.59" cy="2337.92" r="7.18" class="cls-3"/><circle cx="577.66" cy="2660.76" r="4.79" class="cls-3"/><circle cx="790.32" cy="3104.78" r="3.35" class="cls-3"/><circle cx="592.5" cy="3304.51" r="4.31" class="cls-3"/><circle cx="597.77" cy="3505.21" r="1.44" class="cls-3"/><circle cx="720.39" cy="3616.81" r="1.44" class="cls-3"/><circle cx="619.33" cy="3766.26" r="5.75" class="cls-3"/><circle cx="655.73" cy="3972.22" r=".48" class="cls-3"/><circle cx="3859.66" cy="379.83" r=".48" class="cls-3"/><circle cx="3827.09" cy="401.87" r=".96" class="cls-3"/><circle cx="3647.95" cy="362.59" r="5.75" class="cls-3"/><circle cx="811.88" cy="1382.83" r="8.14" class="cls-3"/><circle cx="906.24" cy="1446.53" r=".48" class="cls-3"/><circle cx="741.47" cy="2027.54" r="2.39" class="cls-3"/><circle cx="733.8" cy="2256.02" r="7.66" class="cls-4"/><circle cx="698.84" cy="2494.55" r="5.75" class="cls-3"/><circle cx="969.94" cy="2346.55" r="2.87" class="cls-3"/><circle cx="971.38" cy="2375.28" r=".96" class="cls-3"/><circle cx="1034.61" cy="2623.88" r="7.66" class="cls-4"/><circle cx="875.58" cy="3205.84" r="6.23" class="cls-3"/><circle cx="788.89" cy="3453" r="2.87" class="cls-3"/><circle cx="740.99" cy="3617.77" r="2.39" class="cls-3"/><circle cx="729.01" cy="3968.87" r="7.66" class="cls-3"/><circle cx="743.38" cy="3843.85" r="4.31" class="cls-3"/><circle cx="3669.98" cy="433.48" r=".48" class="cls-3"/><circle cx="3671.9" cy="433.48" r=".96" class="cls-3"/><circle cx="1053.77" cy="1398.63" r="7.66" class="cls-3"/><circle cx="956.05" cy="1525.57" r="3.35" class="cls-3"/><circle cx="1203.69" cy="1795.71" r="2.39" class="cls-3"/><circle cx="1035.09" cy="2071.13" r=".96" class="cls-3"/><circle cx="1028.38" cy="2188.48" r="5.75" class="cls-3"/><circle cx="1012.09" cy="2268.95" r="4.79" class="cls-3"/><circle cx="1117.95" cy="2483.54" r="5.27" class="cls-3"/><circle cx="1233.86" cy="2662.68" r="2.39" class="cls-3"/><circle cx="999.16" cy="3405.1" r="8.14" class="cls-3"/><circle cx="904.8" cy="3502.81" r="4.79" class="cls-3"/><circle cx="826.25" cy="3803.14" r=".96" class="cls-3"/><circle cx="3960.72" cy="556.1" r=".96" class="cls-3"/><circle cx="3891.75" cy="494.31" r=".96" class="cls-3"/><circle cx="3745.66" cy="505.81" r="2.87" class="cls-3"/><circle cx="3624" cy="476.59" r="5.75" class="cls-3"/><circle cx="1066.22" cy="1361.75" r="6.71" class="cls-3"/><circle cx="1587.83" cy="1423.54" r="2.87" class="cls-3"/><circle cx="1741.59" cy="1690.34" r="8.14" class="cls-4"/><circle cx="1234.34" cy="1903.96" r="3.35" class="cls-3"/><circle cx="1131.36" cy="2196.14" r="7.66" class="cls-3"/><circle cx="1185.97" cy="2337.92" r="6.71" class="cls-3"/><path d="M1215.9,2451.92a1.44,1.44,0,1,1-1.43,1.44C1214,2452.88,1214.94,2451.92,1215.9,2451.92Z" class="cls-3" transform="translate(-0.24)"/><circle cx="1254.94" cy="2615.26" r="6.71" class="cls-3"/><circle cx="1182.13" cy="3023.83" r=".96" class="cls-3"/><circle cx="963.72" cy="3728.42" r="1.92" class="cls-3"/><circle cx="1016.88" cy="3820.38" r="6.71" class="cls-3"/><circle cx="999.64" cy="3908.99" r="5.27" class="cls-3"/><circle cx="3850.08" cy="615.5" r=".48" class="cls-3"/><circle cx="3749.97" cy="667.7" r="3.83" class="cls-3"/><circle cx="1849.36" cy="1235.3" r="8.14" class="cls-4"/><circle cx="1868.52" cy="1549.99" r="5.27" class="cls-4"/><circle cx="1799.07" cy="1686.03" r="7.18" class="cls-3"/><circle cx="1388.1" cy="2092.68" r="3.83" class="cls-3"/><circle cx="1432.16" cy="2194.71" r="6.71" class="cls-3"/><circle cx="1430.73" cy="2304.87" r="6.71" class="cls-3"/><path d="M1428.09,2452.88a2.88,2.88,0,1,1-2.87,2.87A2.88,2.88,0,0,1,1428.09,2452.88Z" class="cls-3" transform="translate(-0.24)"/><circle cx="1444.14" cy="2657.89" r="3.83" class="cls-3"/><circle cx="1480.54" cy="2824.57" r="7.66" class="cls-3"/><circle cx="1379.95" cy="3017.6" r=".96" class="cls-3"/><circle cx="1584.96" cy="3601.01" r=".48" class="cls-3"/><circle cx="1492.99" cy="3732.73" r="4.31" class="cls-3"/><circle cx="1474.31" cy="3822.3" r=".96" class="cls-3"/><circle cx="3874.03" cy="1081.55" r="3.83" class="cls-4"/><circle cx="1883.85" cy="1222.37" r="1.92" class="cls-3"/><circle cx="1844.09" cy="1382.35" r="2.39" class="cls-3"/><circle cx="1574.42" cy="1872.83" r="6.23" class="cls-3"/><circle cx="2038.56" cy="2134.36" r="3.83" class="cls-3"/><circle cx="2054.84" cy="2127.65" r="2.87" class="cls-3"/><circle cx="1561.97" cy="2377.2" r="7.18" class="cls-5"/><circle cx="2051.97" cy="2558.26" r=".96" class="cls-3"/><circle cx="1749.73" cy="2619.57" r="3.35" class="cls-3"/><circle cx="1716.2" cy="2814.99" r="3.83" class="cls-3"/><circle cx="1695.61" cy="2911.75" r="6.23" class="cls-3"/><circle cx="1595.02" cy="3159.86" r="8.14" class="cls-4"/><circle cx="1676.92" cy="3712.13" r=".96" class="cls-3"/><circle cx="1803.86" cy="3760.03" r="3.83" class="cls-3"/><circle cx="3848.16" cy="1151.96" r="6.23" class="cls-5"/><circle cx="3783.02" cy="1126.57" r=".96" class="cls-3"/><circle cx="2065.38" cy="1400.07" r="7.66" class="cls-3"/><circle cx="2081.19" cy="1532.27" r=".48" class="cls-3"/><circle cx="2001.68" cy="1870.91" r="1.44" class="cls-3"/><circle cx="2158.3" cy="2083.58" r="1.44" class="cls-3"/><circle cx="2076.4" cy="2280.45" r="8.14" class="cls-3"/><circle cx="2199.5" cy="2313.5" r="6.23" class="cls-3"/><circle cx="2173.63" cy="2494.55" r="8.14" class="cls-4"/><circle cx="1996.41" cy="2686.15" r="4.31" class="cls-3"/><circle cx="2023.71" cy="2896.9" r="2.39" class="cls-3"/><circle cx="2027.06" cy="3016.64" r="7.66" class="cls-5"/><circle cx="2035.68" cy="3247.04" r="2.39" class="cls-3"/><circle cx="1841.7" cy="3609.63" r="3.83" class="cls-3"/><circle cx="1832.12" cy="3701.11" r="7.18" class="cls-3"/><circle cx="3864.45" cy="1322.48" r="3.83" class="cls-3"/><circle cx="3660.4" cy="1316.73" r="4.79" class="cls-3"/><circle cx="3758.11" cy="1470" r="7.18" class="cls-3"/><circle cx="2294.82" cy="1394.32" r="7.66" class="cls-3"/><circle cx="2203.33" cy="1584.48" r="8.62" class="cls-5"/><circle cx="2157.83" cy="1941.8" r="8.14" class="cls-3"/><circle cx="2279.49" cy="2030.89" r="6.23" class="cls-3"/><circle cx="2255.06" cy="2165.49" r="6.23" class="cls-3"/><circle cx="2302.96" cy="2425.1" r="5.75" class="cls-3"/><circle cx="2313.5" cy="2452.4" r=".96" class="cls-3"/><circle cx="2172.19" cy="2712.97" r="1.44" class="cls-3"/><circle cx="2104.66" cy="2868.64" r="4.79" class="cls-3"/><circle cx="2300.08" cy="3803.14" r=".48" class="cls-3"/><circle cx="2068.73" cy="3079.87" r="1.44" class="cls-3"/><circle cx="3773.44" cy="1900.61" r="8.14" class="cls-4"/><circle cx="3698.72" cy="1914.5" r="5.27" class="cls-3"/><circle cx="1999.28" cy="3781.58" r=".48" class="cls-3"/><circle cx="3921.93" cy="1597.89" r="3.83" class="cls-3"/><circle cx="3784.94" cy="1551.91" r="6.71" class="cls-3"/><circle cx="2516.11" cy="1168.72" r="5.27" class="cls-3"/><circle cx="2339.84" cy="1578.25" r="6.71" class="cls-3"/><circle cx="2378.64" cy="1606.99" r="4.79" class="cls-3"/><circle cx="2388.7" cy="2049.1" r="7.66" class="cls-4"/><circle cx="108.73" cy="3100.47" r="8.14" class="cls-3"/><circle cx="772.6" cy="125.49" r="2.39" class="cls-3"/><circle cx="745.3" cy="198.78" r=".96" class="cls-3"/><circle cx="726.62" cy="245.24" r="5.27" class="cls-3"/><circle cx="702.67" cy="833.91" r="7.18" class="cls-3"/><circle cx="742.91" cy="755.84" r="7.18" class="cls-3"/><circle cx="99.63" cy="2974.97" r="8.14" class="cls-5"/><circle cx="934.5" cy="1.44" r=".48" class="cls-3"/><circle cx="906.72" cy="214.11" r="2.39" class="cls-3"/><circle cx="886.6" cy="674.41" r="7.66" class="cls-3"/><circle cx="115.44" cy="2733.09" r="7.66" class="cls-3"/><circle cx="984.79" cy="80.47" r="3.35" class="cls-3"/><circle cx="987.19" cy="188.72" r="2.39" class="cls-3"/><circle cx="970.9" cy="779.31" r=".96" class="cls-3"/><circle cx="3099.51" cy="379.36" r="8.14" class="cls-3"/><circle cx="3250.39" cy="457.43" r="2.39" class="cls-3"/><circle cx="3282.96" cy="528.8" r=".96" class="cls-3"/><circle cx="3213.51" cy="199.26" r="8.14" class="cls-4"/><circle cx="3277.21" cy="255.3" r=".48" class="cls-3"/><circle cx="3407.98" cy="425.34" r="2.39" class="cls-3"/><circle cx="3205.84" cy="463.18" r="7.66" class="cls-3"/><circle cx="3368.7" cy="275.9" r="3.35" class="cls-3"/><circle cx="3446.77" cy="350.14" r="2.39" class="cls-3"/><circle cx="3330.86" cy="82.39" r="6.71" class="cls-5"/><circle cx="1525.57" cy="82.86" r="8.14" class="cls-4"/><circle cx="1122.26" cy="690.22" r="3.35" class="cls-3"/><circle cx="1963.36" cy="189.2" r="8.14" class="cls-5"/><circle cx="1884.33" cy="337.21" r="5.27" class="cls-3"/><circle cx="1582.56" cy="78.55" r="7.18" class="cls-3"/><circle cx="1470.48" cy="796.55" r="3.83" class="cls-3"/><circle cx="1997.84" cy="176.27" r="1.92" class="cls-3"/><circle cx="2006.47" cy="258.17" r="2.39" class="cls-3"/><circle cx="1608.43" cy="654.29" r="6.23" class="cls-3"/><circle cx="1887.2" cy="681.12" r="3.83" class="cls-3"/><circle cx="2106.1" cy="166.21" r="7.66" class="cls-3"/><circle cx="2121.9" cy="298.41" r=".48" class="cls-3"/><circle cx="2090.29" cy="559.45" r="1.44" class="cls-3"/><circle cx="2178.9" cy="699.32" r="1.44" class="cls-3"/><circle cx="2291.94" cy="273.02" r="8.62" class="cls-5"/><circle cx="2246.44" cy="630.34" r="8.14" class="cls-3"/><circle cx="2299.6" cy="646.15" r="6.23" class="cls-3"/><circle cx="2250.27" cy="801.34" r="6.23" class="cls-3"/><circle cx="90.05" cy="876.54" r="6.71" class="cls-4"/><circle cx="119.27" cy="837.74" r="4.79" class="cls-3"/><circle cx="2966.35" cy="248.11" r="7.66" class="cls-3"/><circle cx="3665.19" cy="237.1" r="8.14" class="cls-3"/><circle cx="3532.03" cy="105.86" r="7.66" class="cls-3"/><circle cx="750.09" cy="930.19" r=".96" class="cls-3"/><circle cx="731.41" cy="976.65" r="5.27" class="cls-3"/><circle cx="720.39" cy="1333.01" r="7.18" class="cls-3"/><circle cx="761.11" cy="1255.42" r="7.18" class="cls-3"/><circle cx="911.51" cy="945.52" r="2.39" class="cls-3"/><circle cx="904.32" cy="1173.99" r="7.66" class="cls-4"/><circle cx="992.46" cy="920.13" r="2.39" class="cls-3"/><circle cx="988.62" cy="1278.41" r=".96" class="cls-3"/><circle cx="1629.03" cy="887.56" r="8.14" class="cls-3"/><circle cx="1187.88" cy="1111.72" r="3.35" class="cls-3"/><circle cx="1686.03" cy="883.25" r="7.18" class="cls-3"/><circle cx="1488.21" cy="1295.65" r="3.83" class="cls-3"/><circle cx="1626.15" cy="1153.39" r="6.23" class="cls-3"/><circle cx="1904.92" cy="1180.7" r="3.83" class="cls-3"/><circle cx="2108.01" cy="1058.56" r="1.44" class="cls-3"/><circle cx="2196.14" cy="1198.42" r="1.44" class="cls-3"/><circle cx="2264.16" cy="1129.45" r="8.14" class="cls-3"/><circle cx="2317.33" cy="1145.25" r="6.23" class="cls-3"/><circle cx="2194.71" cy="1399.59" r="6.23" class="cls-3"/><circle cx="2499.82" cy="1044.67" r="7.66" class="cls-4"/><circle cx="2481.14" cy="2176.51" r=".96" class="cls-3"/><circle cx="2380.07" cy="2412.17" r="3.83" class="cls-3"/><rect x="2382.47" y="2541.49" class="cls-3"/><circle cx="2279.01" cy="2766.61" r="1.44" class="cls-3"/><circle cx="2418.39" cy="3655.61" r="7.66" class="cls-4"/><circle cx="3219.26" cy="2100.35" r="8.14" class="cls-3"/><circle cx="3163.21" cy="2173.15" r="5.27" class="cls-3"/><circle cx="3253.74" cy="2087.89" r="1.44" class="cls-3"/><circle cx="3213.99" cy="2247.4" r="2.39" class="cls-3"/><circle cx="3281.52" cy="3384.03" r="3.83" class="cls-3"/><circle cx="3446.77" cy="3772.48" r="2.87" class="cls-3"/><circle cx="3840.02" cy="3152.68" r=".96" class="cls-3"/><circle cx="3775.84" cy="3155.07" r="3.35" class="cls-3"/><circle cx="3362.47" cy="2077.84" r="7.66" class="cls-3"/><circle cx="3377.8" cy="2210.03" r=".48" class="cls-3"/><circle cx="3309.78" cy="2635.37" r="1.44" class="cls-3"/><circle cx="3397.92" cy="2775.24" r="1.44" class="cls-3"/><circle cx="3532.99" cy="3861.09" r="8.14" class="cls-3"/><circle cx="3655.61" cy="3894.14" r="6.23" class="cls-3"/><circle cx="3903.72" cy="3274.34" r="8.14" class="cls-4"/><circle cx="3728.42" cy="3172.31" r="4.31" class="cls-3"/><circle cx="3353.85" cy="2462.94" r="8.62" class="cls-3"/><circle cx="3465.93" cy="2706.74" r="8.14" class="cls-3"/><circle cx="3519.1" cy="2722.55" r="6.23" class="cls-3"/><circle cx="3711.17" cy="3746.14" r="6.23" class="cls-3"/><circle cx="3973.18" cy="3403.66" r="5.75" class="cls-3"/><circle cx="3945.87" cy="3414.2" r=".96" class="cls-3"/><circle cx="3765.78" cy="3412.77" r="1.44" class="cls-3"/><circle cx="3518.14" cy="2388.22" r="5.27" class="cls-3"/><circle cx="3358.64" cy="2565.92" r="6.71" class="cls-3"/><circle cx="3358.16" cy="2614.78" r="4.79" class="cls-3"/><circle cx="3555.02" cy="1381.39" r="7.66" class="cls-3"/><circle cx="3393.61" cy="1902.05" r="3.83" class="cls-3"/><circle cx="3331.82" cy="1773.68" r="1.44" class="cls-3"/><circle cx="3538.26" cy="2150.16" r="8.14" class="cls-4"/><circle cx="3557.42" cy="2202.37" r="6.23" class="cls-3"/><circle cx="3403.19" cy="2256.02" r="6.23" class="cls-3"/><circle cx="3557.9" cy="1115.08" r="7.66" class="cls-3"/><circle cx="3519.58" cy="1712.37" r=".96" class="cls-3"/><circle cx="3489.4" cy="1794.76" r="3.83" class="cls-3"/><rect x="3571.31" y="1889.12" class="cls-3"/><circle cx="3488.44" cy="2177.94" r="1.44" class="cls-3"/><circle cx="2407.86" cy="3829.96" r=".48" class="cls-3"/><circle cx="3926.72" cy="2010.3" r="2.39" class="cls-3"/><circle cx="3844.81" cy="2021.31" r="5.27" class="cls-3"/><circle cx="3879.77" cy="2179.38" r="2.87" class="cls-3"/><circle cx="2878.7" cy="1273.62" r="8.14" class="cls-3"/><circle cx="2993.17" cy="1185.49" r="1.44" class="cls-3"/><circle cx="2537.66" cy="2133.4" r="3.83" class="cls-3"/><circle cx="2563.05" cy="2644.47" r=".96" class="cls-3"/><circle cx="2564.96" cy="2708.66" r="3.35" class="cls-3"/><circle cx="2767.09" cy="3498.98" r="3.83" class="cls-3"/><circle cx="3834.75" cy="2423.18" r="3.83" class="cls-3"/><circle cx="3057.84" cy="1232.43" r="7.66" class="cls-3"/><circle cx="2909.35" cy="1471.92" r=".48" class="cls-3"/><circle cx="2841.34" cy="1783.26" r="1.44" class="cls-3"/><circle cx="2609.99" cy="2160.7" r="1.44" class="cls-3"/><circle cx="2575.98" cy="2279.49" r="8.14" class="cls-3"/><circle cx="2698.6" cy="2312.54" r="6.23" class="cls-5"/><circle cx="2684.71" cy="2580.77" r="8.14" class="cls-3"/><circle cx="2582.68" cy="2756.08" r="4.31" class="cls-3"/><circle cx="2909.35" cy="3497.55" r="2.39" class="cls-3"/><circle cx="2912.7" cy="3616.81" r="7.66" class="cls-5"/><circle cx="2921.81" cy="3847.68" r="2.39" class="cls-3"/><circle cx="2816.91" cy="3993.77" r="3.83" class="cls-3"/><circle cx="3893.67" cy="2451.44" r="7.18" class="cls-4"/><circle cx="3255.18" cy="1408.21" r="7.66" class="cls-3"/><circle cx="2861.93" cy="1677.88" r="8.62" class="cls-4"/><circle cx="3076.52" cy="1906.84" r="8.14" class="cls-3"/><circle cx="3010.42" cy="2066.34" r="6.23" class="cls-3"/><circle cx="2754.64" cy="2164.53" r="6.23" class="cls-3"/><circle cx="3020.48" cy="2568.32" r="5.75" class="cls-3"/><circle cx="3031.01" cy="2595.62" r=".96" class="cls-3"/><circle cx="3029.58" cy="2776.19" r="1.44" class="cls-3"/><circle cx="2990.3" cy="3469.29" r="4.79" class="cls-3"/><circle cx="3039.64" cy="3592.86" r=".48" class="cls-3"/><circle cx="2954.86" cy="3680.52" r="1.44" class="cls-3"/><circle cx="3005.15" cy="3991.86" r="8.14" class="cls-3"/><circle cx="3911.87" cy="2663.63" r="5.27" class="cls-3"/><circle cx="3813.2" cy="2619.09" r=".48" class="cls-3"/><circle cx="3483.65" cy="1058.56" r="5.27" class="cls-3"/><circle cx="3300.68" cy="1591.67" r="6.71" class="cls-3"/><circle cx="3302.6" cy="1671.18" r="4.79" class="cls-3"/><circle cx="3122.02" cy="1663.99" r="7.66" class="cls-3"/><circle cx="3014.25" cy="1143.34" r="3.83" class="cls-3"/><circle cx="3075.56" cy="911.99" r="1.44" class="cls-3"/><circle cx="3115.79" cy="1129.45" r="1.44" class="cls-3"/><circle cx="3041.55" cy="1452.76" r="8.14" class="cls-3"/><circle cx="3495.63" cy="533.11" r="6.23" class="cls-3"/><circle cx="3155.55" cy="1413" r="6.23" class="cls-3"/><circle cx="3354.81" cy="1060.47" r="7.66" class="cls-3"/><circle cx="3187.16" cy="2232.55" r=".96" class="cls-3"/><circle cx="3097.59" cy="2555.38" r="3.83" class="cls-3"/><rect x="3099.99" y="2684.71" class="cls-3"/><circle cx="3135.91" cy="2829.84" r="1.44" class="cls-3"/><circle cx="3157.95" cy="3445.34" r="7.66" class="cls-4"/><circle cx="3147.89" cy="3619.21" r=".48" class="cls-3"/><circle cx="3114.84" cy="3839.06" r="2.39" class="cls-3"/><circle cx="3125.85" cy="3920.49" r="5.27" class="cls-3"/><circle cx="3815.11" cy="2790.09" r="4.79" class="cls-3"/><path d="M809.72,2998.44h0a1.74,1.74,0,0,1-1.43-.48V2997h0a21.33,21.33,0,0,0,0-18.68h0c-.48-.48,0-1,.48-1.44h1a21.33,21.33,0,0,0,18.68,0h0a1.76,1.76,0,0,1,1.44.48v1h0a21.33,21.33,0,0,0,0,18.68h0a1.74,1.74,0,0,1-.48,1.43h-1A25.22,25.22,0,0,0,809.72,2998.44Z" class="cls-6" transform="translate(-0.24)"/><path d="M625.31,1131.84h0a1.75,1.75,0,0,1-1.43-.48v-1h0a21.33,21.33,0,0,0,0-18.68h0a1.74,1.74,0,0,1,.48-1.43h.95a21.33,21.33,0,0,0,18.68,0h0a1.76,1.76,0,0,1,1.44.48v1h0a21.33,21.33,0,0,0,0,18.68h0a1.76,1.76,0,0,1-.48,1.44h-1A21.33,21.33,0,0,0,625.31,1131.84Z" class="cls-7" transform="translate(-0.24)"/><path d="M2502,2368.1h0c-.48.48-1,0-1.44-.48v-1h0a21.33,21.33,0,0,0,0-18.68h0a1.73,1.73,0,0,1,.48-1.43h1a21.33,21.33,0,0,0,18.68,0h0c.48-.48,1,0,1.43.47v1h0a21.33,21.33,0,0,0,0,18.68h0a1.76,1.76,0,0,1-.48,1.44h-1A21.33,21.33,0,0,0,2502,2368.1Z" class="cls-6" transform="translate(-0.24)"/><path d="M2627.47,1512.63h0a1.76,1.76,0,0,1-1.44-.48v-1h0a21.27,21.27,0,0,0,0-18.68h0c-.48-.48,0-1,.48-1.44h1a21.33,21.33,0,0,0,18.68,0h0c.48-.48,1,0,1.44.48v1h0a21.27,21.27,0,0,0,0,18.68h0c.48.48,0,1-.48,1.43h-1A21.33,21.33,0,0,0,2627.47,1512.63Z" class="cls-7" transform="translate(-0.24)"/><path d="M2417.2,650h0a1.76,1.76,0,0,1-1.44-.48v-1h0a21.35,21.35,0,0,0,0-18.69h0a1.75,1.75,0,0,1,.48-1.43h1a21.33,21.33,0,0,0,18.68,0h0a1.74,1.74,0,0,1,1.43.48v1h0a21.35,21.35,0,0,0,0,18.69h0a1.75,1.75,0,0,1-.48,1.43h-.95A21.33,21.33,0,0,0,2417.2,650Z" class="cls-6" transform="translate(-0.24)"/><path d="M3348.34,1407.74h0c-.48.47-1,0-1.44-.48v-1h0a21.27,21.27,0,0,0,0-18.68h0a1.76,1.76,0,0,1,.48-1.44h1a21.27,21.27,0,0,0,18.68,0h0c.48-.48,1,0,1.44.48v1h0a21.33,21.33,0,0,0,0,18.68h0a1.76,1.76,0,0,1-.48,1.44h-1A21.27,21.27,0,0,0,3348.34,1407.74Z" class="cls-6" transform="translate(-0.24)"/><path d="M372.89,2746h0a1.76,1.76,0,0,1-1.44-.48v-1h0a21.27,21.27,0,0,0,0-18.68h0c-.48-.48,0-1,.48-1.44h1a21.27,21.27,0,0,0,18.68,0h0a1.76,1.76,0,0,1,1.44.48v1h0c-2.88,5.75-2.4,12.93,0,18.68h0a1.76,1.76,0,0,1-.48,1.44h-1A21.27,21.27,0,0,0,372.89,2746Z" class="cls-6" transform="translate(-0.24)"/><path d="M1320.32,3811.28h0a1.76,1.76,0,0,1-1.44-.48v-1h0a21.27,21.27,0,0,0,0-18.68h0c-.47-.48,0-1,.48-1.43h1a21.33,21.33,0,0,0,18.68,0h0c.48-.48,1,0,1.44.47v1h0a21.27,21.27,0,0,0,0,18.68h0a1.76,1.76,0,0,1-.48,1.44h-1A21.34,21.34,0,0,0,1320.32,3811.28Z" class="cls-6" transform="translate(-0.24)"/><path d="M939.05,3536.82h0c-.48.48-1,0-1.44-.48v-1h0a21.27,21.27,0,0,0,0-18.68h0c-.48-.47,0-.95.48-1.43h1a21.33,21.33,0,0,0,18.68,0h0a1.76,1.76,0,0,1,1.44.48v.95h0a21.27,21.27,0,0,0,0,18.68h0a1.76,1.76,0,0,1-.48,1.44h-1A21.33,21.33,0,0,0,939.05,3536.82Z" class="cls-6" transform="translate(-0.24)"/><path d="M615.26,3957.37h0c-.48.48-1,0-1.44-.48v-1h0a21.33,21.33,0,0,0,0-18.68h0a1.74,1.74,0,0,1,.48-1.43h1a21.33,21.33,0,0,0,18.68,0h0a1.75,1.75,0,0,1,1.43.48v.95h0a21.33,21.33,0,0,0,0,18.68h0c.48.48,0,1-.48,1.44h-.95A25.22,25.22,0,0,0,615.26,3957.37Z" class="cls-6" transform="translate(-0.24)"/><path d="M2446.89,2740.27h0c-.48.48-1,0-1.43-.48v-1h0a21.33,21.33,0,0,0,0-18.68h0c-.48-.48,0-1,.47-1.43h1a21.33,21.33,0,0,0,18.68,0h0a1.76,1.76,0,0,1,1.44.48v1h0a21.33,21.33,0,0,0,0,18.68h0a1.76,1.76,0,0,1-.48,1.44h-1A25.22,25.22,0,0,0,2446.89,2740.27Z" class="cls-6" transform="translate(-0.24)"/><path d="M1211.59,2644.47h0a1.76,1.76,0,0,1-1.44-.48V2643h0a21.27,21.27,0,0,0,0-18.68h0a1.76,1.76,0,0,1,.48-1.44h1a21.33,21.33,0,0,0,18.68,0h0a1.76,1.76,0,0,1,1.44.48v1h0a21.27,21.27,0,0,0,0,18.68h0c.48.48,0,.95-.48,1.43h-1A21.34,21.34,0,0,0,1211.59,2644.47Z" class="cls-7" transform="translate(-0.24)"/><path d="M3410.61,2104.18h0a1.76,1.76,0,0,1-1.44-.48v-1h0a21.27,21.27,0,0,0,0-18.68h0a1.76,1.76,0,0,1,.48-1.44h1a21.27,21.27,0,0,0,18.68,0h0c.48-.47,1,0,1.44.48v1h0a21.27,21.27,0,0,0,0,18.68h0a1.76,1.76,0,0,1-.48,1.44h-1A25.12,25.12,0,0,0,3410.61,2104.18Z" class="cls-7" transform="translate(-0.24)"/><path d="M1807,3166.09h0a1.76,1.76,0,0,1-1.44-.48v-1h0a21.27,21.27,0,0,0,0-18.68h0c-.48-.48,0-1,.48-1.44h1a21.27,21.27,0,0,0,18.68,0h0c.48-.48,1,0,1.44.48v1h0a21.27,21.27,0,0,0,0,18.68h0c.48.48,0,1-.48,1.44h-1A25.12,25.12,0,0,0,1807,3166.09Z" class="cls-6" transform="translate(-0.24)"/><path d="M2551.79,3225h0a1.76,1.76,0,0,1-1.44-.48v-.95h0a21.27,21.27,0,0,0,0-18.68h0c-.48-.48,0-1,.48-1.44h1a21.33,21.33,0,0,0,18.68,0h0c.48-.48,1,0,1.44.48v1h0a21.27,21.27,0,0,0,0,18.68h0a1.74,1.74,0,0,1-.48,1.43h-1A25.22,25.22,0,0,0,2551.79,3225Z" class="cls-6" transform="translate(-0.24)"/><path d="M1226.44,1825.89h0a1.76,1.76,0,0,1-1.44-.48v-1h0a21.27,21.27,0,0,0,0-18.68h0a1.76,1.76,0,0,1,.48-1.44h1a21.27,21.27,0,0,0,18.68,0h0a1.76,1.76,0,0,1,1.44.48v1h0a21.27,21.27,0,0,0,0,18.68h0a1.76,1.76,0,0,1-.48,1.44h-1A25.12,25.12,0,0,0,1226.44,1825.89Z" class="cls-6" transform="translate(-0.24)"/><path d="M2067.06,1910.67h0a1.76,1.76,0,0,1-1.44-.48v-1h0a21.33,21.33,0,0,0,0-18.68h0a1.73,1.73,0,0,1,.48-1.43h1a21.33,21.33,0,0,0,18.68,0h0a1.79,1.79,0,0,1,1.44.47v1h0a21.27,21.27,0,0,0,0,18.68h0a1.76,1.76,0,0,1-.48,1.44h-1A25.12,25.12,0,0,0,2067.06,1910.67Z" class="cls-6" transform="translate(-0.24)"/></g></g></g></g></svg>